# xmcd
#
# Track frame offsets: 
#        150
#        16882
#        33880
#        47612
#        62012
#        79237
#        92830
#
# Disc length: 1516 seconds
#
# Revision: 1
# Processed by: cddbd v1.5.2PL0 Copyright (c) Steve Scherf et al.
# Submitted via: ExactAudioCopy v1.0b1
#
DISCID=4b05ea07
DTITLE=Various Artist - The Brand New Twang
DYEAR=1900
DGENRE=Country
TTITLE0=The Knot Comes Untied (Sara Evens)
TTITLE1=Just Another Sad Song (The Warren Brothers)
TTITLE2=Holdin' On To You (Brad Paisley)
TTITLE3=I Miss You The Most (Andy Gibbs)
TTITLE4=Sorrowful Angles (Sharron Brown)
TTITLE5=A Fools Progress (Clint Daniels)
TTITLE6=Mean Streak (Prairie Oyster)
EXTD=
EXTT0=
EXTT1=
EXTT2=
EXTT3=
EXTT4=
EXTT5=
EXTT6=
PLAYORDER=
